<svg width="502" height="137" viewBox="0 0 502 137" fill="none" xmlns="http://www.w3.org/2000/svg">
<path d="M0 0C0 0 152.434 22 251 22C349.566 22 502 0 502 0C502 0 478.5 40.0289 478.5 68.5C478.5 96.9711 502 137 502 137C502 137 349.246 124.5 251 124.5C152.754 124.5 0 137 0 137C0 137 19 96.3874 19 68.5C19 40.6126 0 0 0 0Z" fill="#5451E3"/>
<path d="M228.419 67.6406H219.087C218.916 66.4332 218.568 65.3608 218.043 64.4233C217.517 63.4716 216.842 62.6619 216.018 61.9943C215.195 61.3267 214.243 60.8153 213.163 60.4602C212.098 60.1051 210.94 59.9276 209.69 59.9276C207.432 59.9276 205.464 60.4886 203.788 61.6108C202.112 62.7187 200.813 64.3381 199.889 66.4688C198.966 68.5852 198.504 71.1562 198.504 74.1818C198.504 77.2926 198.966 79.9062 199.889 82.0227C200.827 84.1392 202.134 85.7372 203.81 86.8168C205.486 87.8963 207.425 88.4361 209.626 88.4361C210.862 88.4361 212.006 88.2727 213.057 87.946C214.122 87.6193 215.067 87.1435 215.891 86.5185C216.714 85.8793 217.396 85.1051 217.936 84.196C218.49 83.2869 218.874 82.25 219.087 81.0852L228.419 81.1278C228.178 83.1307 227.574 85.0625 226.608 86.9233C225.656 88.7699 224.371 90.4247 222.751 91.8878C221.146 93.3366 219.229 94.4872 216.999 95.3395C214.783 96.1776 212.276 96.5966 209.477 96.5966C205.585 96.5966 202.105 95.7159 199.037 93.9545C195.983 92.1932 193.568 89.6435 191.793 86.3054C190.031 82.9673 189.151 78.9261 189.151 74.1818C189.151 69.4233 190.045 65.375 191.835 62.0369C193.625 58.6989 196.054 56.1562 199.122 54.4091C202.19 52.6477 205.642 51.767 209.477 51.767C212.006 51.767 214.349 52.1222 216.509 52.8324C218.682 53.5426 220.607 54.5795 222.283 55.9432C223.959 57.2926 225.322 58.9474 226.374 60.9077C227.439 62.8679 228.121 65.1122 228.419 67.6406ZM261.707 64.9134C261.536 63.1946 260.805 61.8594 259.512 60.9077C258.219 59.956 256.465 59.4801 254.249 59.4801C252.744 59.4801 251.472 59.6932 250.435 60.1193C249.398 60.5312 248.603 61.1065 248.049 61.8452C247.509 62.5838 247.239 63.4219 247.239 64.3594C247.211 65.1406 247.374 65.8224 247.729 66.4048C248.099 66.9872 248.603 67.4915 249.242 67.9176C249.881 68.3295 250.62 68.6918 251.458 69.0043C252.296 69.3026 253.191 69.5582 254.143 69.7713L258.063 70.7088C259.967 71.1349 261.714 71.7031 263.305 72.4134C264.896 73.1236 266.273 73.9972 267.438 75.0341C268.603 76.071 269.505 77.2926 270.144 78.6989C270.798 80.1051 271.131 81.7173 271.146 83.5355C271.131 86.206 270.45 88.5213 269.1 90.4815C267.765 92.4276 265.833 93.9403 263.305 95.0199C260.79 96.0852 257.758 96.6179 254.207 96.6179C250.684 96.6179 247.616 96.0781 245.002 94.9986C242.403 93.919 240.371 92.321 238.908 90.2045C237.46 88.0739 236.7 85.4389 236.629 82.2997H245.556C245.656 83.7628 246.075 84.9844 246.813 85.9645C247.566 86.9304 248.567 87.6619 249.817 88.1591C251.082 88.642 252.509 88.8835 254.1 88.8835C255.663 88.8835 257.019 88.6562 258.17 88.2017C259.335 87.7472 260.237 87.1151 260.876 86.3054C261.515 85.4957 261.835 84.5653 261.835 83.5142C261.835 82.5341 261.543 81.7102 260.961 81.0426C260.393 80.375 259.555 79.8068 258.447 79.3381C257.353 78.8693 256.011 78.4432 254.42 78.0597L249.668 76.8665C245.989 75.9716 243.085 74.5724 240.954 72.669C238.823 70.7656 237.765 68.2017 237.779 64.9773C237.765 62.3352 238.468 60.027 239.888 58.0526C241.323 56.0781 243.29 54.5369 245.79 53.429C248.29 52.321 251.131 51.767 254.313 51.767C257.552 51.767 260.379 52.321 262.793 53.429C265.222 54.5369 267.112 56.0781 268.461 58.0526C269.81 60.027 270.506 62.3139 270.549 64.9134H261.707ZM304.023 64.9134C303.853 63.1946 303.121 61.8594 301.828 60.9077C300.536 59.956 298.782 59.4801 296.566 59.4801C295.06 59.4801 293.789 59.6932 292.752 60.1193C291.715 60.5312 290.919 61.1065 290.365 61.8452C289.826 62.5838 289.556 63.4219 289.556 64.3594C289.527 65.1406 289.691 65.8224 290.046 66.4048C290.415 66.9872 290.919 67.4915 291.559 67.9176C292.198 68.3295 292.936 68.6918 293.775 69.0043C294.613 69.3026 295.507 69.5582 296.459 69.7713L300.38 70.7088C302.283 71.1349 304.03 71.7031 305.621 72.4134C307.212 73.1236 308.59 73.9972 309.755 75.0341C310.919 76.071 311.821 77.2926 312.461 78.6989C313.114 80.1051 313.448 81.7173 313.462 83.5355C313.448 86.206 312.766 88.5213 311.417 90.4815C310.081 92.4276 308.15 93.9403 305.621 95.0199C303.107 96.0852 300.074 96.6179 296.523 96.6179C293 96.6179 289.932 96.0781 287.319 94.9986C284.719 93.919 282.688 92.321 281.225 90.2045C279.776 88.0739 279.016 85.4389 278.945 82.2997H287.873C287.972 83.7628 288.391 84.9844 289.13 85.9645C289.882 86.9304 290.884 87.6619 292.134 88.1591C293.398 88.642 294.826 88.8835 296.417 88.8835C297.979 88.8835 299.336 88.6562 300.486 88.2017C301.651 87.7472 302.553 87.1151 303.192 86.3054C303.831 85.4957 304.151 84.5653 304.151 83.5142C304.151 82.5341 303.86 81.7102 303.277 81.0426C302.709 80.375 301.871 79.8068 300.763 79.3381C299.669 78.8693 298.327 78.4432 296.736 78.0597L291.985 76.8665C288.306 75.9716 285.401 74.5724 283.27 72.669C281.14 70.7656 280.081 68.2017 280.096 64.9773C280.081 62.3352 280.784 60.027 282.205 58.0526C283.64 56.0781 285.607 54.5369 288.107 53.429C290.607 52.321 293.448 51.767 296.63 51.767C299.868 51.767 302.695 52.321 305.11 53.429C307.539 54.5369 309.428 56.0781 310.777 58.0526C312.127 60.027 312.823 62.3139 312.865 64.9134H304.023Z" fill="white"/>
</svg>
