<svg width="502" height="137" viewBox="0 0 502 137" fill="none" xmlns="http://www.w3.org/2000/svg">
<path d="M0 0C0 0 152.434 22 251 22C349.566 22 502 0 502 0C502 0 478.5 40.0289 478.5 68.5C478.5 96.9711 502 137 502 137C502 137 349.246 124.5 251 124.5C152.754 124.5 0 137 0 137C0 137 19 96.3874 19 68.5C19 40.6126 0 0 0 0Z" fill="#5451E3"/>
<path d="M163.898 96V52.3636H173.124V70.3679H191.853V52.3636H201.057V96H191.853V77.9744H173.124V96H163.898ZM210.002 59.9702V52.3636H245.84V59.9702H232.48V96H223.361V59.9702H210.002ZM254.742 52.3636H266.12L278.137 81.6818H278.648L290.665 52.3636H302.043V96H293.094V67.598H292.732L281.439 95.7869H275.346L264.053 67.4915H263.691V96H254.742V52.3636ZM312.644 96V52.3636H321.87V88.3935H340.577V96H312.644Z" fill="white"/>
</svg>
