<svg width="502" height="137" viewBox="0 0 502 137" fill="none" xmlns="http://www.w3.org/2000/svg">
<path d="M0 0C0 0 152.434 22 251 22C349.566 22 502 0 502 0C502 0 478.5 40.0289 478.5 68.5C478.5 96.9711 502 137 502 137C502 137 349.246 124.5 251 124.5C152.754 124.5 0 137 0 137C0 137 19 96.3874 19 68.5C19 40.6126 0 0 0 0Z" fill="#5451E3"/>
<path d="M102.438 52.3636H111.557V82.7898C111.557 85.6023 110.925 88.0455 109.661 90.1193C108.411 92.1932 106.671 93.7912 104.441 94.9134C102.211 96.0355 99.6184 96.5966 96.6639 96.5966C94.036 96.5966 91.6497 96.1349 89.5048 95.2116C87.3741 94.2741 85.6838 92.8537 84.4338 90.9503C83.1838 89.0327 82.5659 86.625 82.5801 83.7273H91.7633C91.7917 84.8778 92.0261 85.8651 92.4664 86.6889C92.921 87.4986 93.5389 88.1236 94.3201 88.5639C95.1156 88.9901 96.0531 89.2031 97.1326 89.2031C98.269 89.2031 99.2278 88.9616 100.009 88.4787C100.805 87.9815 101.408 87.2571 101.82 86.3054C102.232 85.3537 102.438 84.1818 102.438 82.7898V52.3636ZM131.347 96.6179C129.259 96.6179 127.398 96.2557 125.765 95.5312C124.131 94.7926 122.839 93.706 121.887 92.2713C120.949 90.8224 120.481 89.0185 120.481 86.8594C120.481 85.0412 120.814 83.5142 121.482 82.2784C122.15 81.0426 123.059 80.0483 124.209 79.2955C125.36 78.5426 126.667 77.9744 128.13 77.5909C129.607 77.2074 131.155 76.9375 132.775 76.7812C134.678 76.5824 136.212 76.3977 137.377 76.2273C138.542 76.0426 139.387 75.7727 139.912 75.4176C140.438 75.0625 140.701 74.5369 140.701 73.8409V73.7131C140.701 72.3636 140.275 71.3196 139.422 70.581C138.584 69.8423 137.391 69.473 135.843 69.473C134.209 69.473 132.91 69.8352 131.944 70.5597C130.978 71.2699 130.339 72.1648 130.026 73.2443L121.631 72.5625C122.057 70.5739 122.895 68.8551 124.145 67.4062C125.395 65.9432 127.008 64.821 128.982 64.0398C130.971 63.2443 133.272 62.8466 135.885 62.8466C137.704 62.8466 139.444 63.0597 141.106 63.4858C142.782 63.9119 144.266 64.5724 145.559 65.4673C146.866 66.3622 147.895 67.5128 148.648 68.919C149.401 70.3111 149.778 71.9801 149.778 73.9261V96H141.17V91.4616H140.914C140.388 92.4844 139.685 93.3864 138.805 94.1676C137.924 94.9347 136.866 95.5384 135.63 95.9787C134.394 96.4048 132.966 96.6179 131.347 96.6179ZM133.947 90.3537C135.282 90.3537 136.461 90.0909 137.483 89.5653C138.506 89.0256 139.309 88.3011 139.891 87.392C140.474 86.483 140.765 85.4531 140.765 84.3026V80.8295C140.481 81.0142 140.09 81.1847 139.593 81.3409C139.11 81.483 138.563 81.6179 137.952 81.7457C137.341 81.8594 136.731 81.9659 136.12 82.0653C135.509 82.1506 134.955 82.2287 134.458 82.2997C133.393 82.456 132.462 82.7045 131.667 83.0455C130.871 83.3864 130.253 83.848 129.813 84.4304C129.373 84.9986 129.153 85.7088 129.153 86.5611C129.153 87.7969 129.6 88.7415 130.495 89.3949C131.404 90.0341 132.555 90.3537 133.947 90.3537ZM189.159 63.2727L177.717 96H167.49L156.048 63.2727H165.636L172.433 86.6889H172.774L179.55 63.2727H189.159ZM205.257 96.6179C203.169 96.6179 201.308 96.2557 199.675 95.5312C198.041 94.7926 196.749 93.706 195.797 92.2713C194.86 90.8224 194.391 89.0185 194.391 86.8594C194.391 85.0412 194.725 83.5142 195.392 82.2784C196.06 81.0426 196.969 80.0483 198.119 79.2955C199.27 78.5426 200.577 77.9744 202.04 77.5909C203.517 77.2074 205.066 76.9375 206.685 76.7812C208.588 76.5824 210.122 76.3977 211.287 76.2273C212.452 76.0426 213.297 75.7727 213.823 75.4176C214.348 75.0625 214.611 74.5369 214.611 73.8409V73.7131C214.611 72.3636 214.185 71.3196 213.333 70.581C212.494 69.8423 211.301 69.473 209.753 69.473C208.119 69.473 206.82 69.8352 205.854 70.5597C204.888 71.2699 204.249 72.1648 203.936 73.2443L195.541 72.5625C195.968 70.5739 196.806 68.8551 198.056 67.4062C199.306 65.9432 200.918 64.821 202.892 64.0398C204.881 63.2443 207.182 62.8466 209.796 62.8466C211.614 62.8466 213.354 63.0597 215.016 63.4858C216.692 63.9119 218.176 64.5724 219.469 65.4673C220.776 66.3622 221.806 67.5128 222.558 68.919C223.311 70.3111 223.688 71.9801 223.688 73.9261V96H215.08V91.4616H214.824C214.298 92.4844 213.595 93.3864 212.715 94.1676C211.834 94.9347 210.776 95.5384 209.54 95.9787C208.304 96.4048 206.877 96.6179 205.257 96.6179ZM207.857 90.3537C209.192 90.3537 210.371 90.0909 211.394 89.5653C212.416 89.0256 213.219 88.3011 213.801 87.392C214.384 86.483 214.675 85.4531 214.675 84.3026V80.8295C214.391 81.0142 214 81.1847 213.503 81.3409C213.02 81.483 212.473 81.6179 211.862 81.7457C211.252 81.8594 210.641 81.9659 210.03 82.0653C209.419 82.1506 208.865 82.2287 208.368 82.2997C207.303 82.456 206.372 82.7045 205.577 83.0455C204.781 83.3864 204.164 83.848 203.723 84.4304C203.283 84.9986 203.063 85.7088 203.063 86.5611C203.063 87.7969 203.51 88.7415 204.405 89.3949C205.314 90.0341 206.465 90.3537 207.857 90.3537ZM257.572 64.9134C257.401 63.1946 256.67 61.8594 255.377 60.9077C254.085 59.956 252.33 59.4801 250.115 59.4801C248.609 59.4801 247.338 59.6932 246.301 60.1193C245.264 60.5312 244.468 61.1065 243.914 61.8452C243.374 62.5838 243.105 63.4219 243.105 64.3594C243.076 65.1406 243.24 65.8224 243.595 66.4048C243.964 66.9872 244.468 67.4915 245.107 67.9176C245.747 68.3295 246.485 68.6918 247.323 69.0043C248.161 69.3026 249.056 69.5582 250.008 69.7713L253.928 70.7088C255.832 71.1349 257.579 71.7031 259.17 72.4134C260.761 73.1236 262.139 73.9972 263.303 75.0341C264.468 76.071 265.37 77.2926 266.009 78.6989C266.663 80.1051 266.997 81.7173 267.011 83.5355C266.997 86.206 266.315 88.5213 264.965 90.4815C263.63 92.4276 261.698 93.9403 259.17 95.0199C256.656 96.0852 253.623 96.6179 250.072 96.6179C246.549 96.6179 243.481 96.0781 240.867 94.9986C238.268 93.919 236.237 92.321 234.774 90.2045C233.325 88.0739 232.565 85.4389 232.494 82.2997H241.421C241.521 83.7628 241.94 84.9844 242.678 85.9645C243.431 86.9304 244.433 87.6619 245.683 88.1591C246.947 88.642 248.374 88.8835 249.965 88.8835C251.528 88.8835 252.884 88.6562 254.035 88.2017C255.2 87.7472 256.102 87.1151 256.741 86.3054C257.38 85.4957 257.7 84.5653 257.7 83.5142C257.7 82.5341 257.409 81.7102 256.826 81.0426C256.258 80.375 255.42 79.8068 254.312 79.3381C253.218 78.8693 251.876 78.4432 250.285 78.0597L245.534 76.8665C241.855 75.9716 238.95 74.5724 236.819 72.669C234.688 70.7656 233.63 68.2017 233.644 64.9773C233.63 62.3352 234.333 60.027 235.754 58.0526C237.188 56.0781 239.156 54.5369 241.656 53.429C244.156 52.321 246.997 51.767 250.178 51.767C253.417 51.767 256.244 52.321 258.659 53.429C261.088 54.5369 262.977 56.0781 264.326 58.0526C265.676 60.027 266.372 62.3139 266.414 64.9134H257.572ZM290.833 96.6392C287.481 96.6392 284.597 95.929 282.182 94.5085C279.782 93.0739 277.935 91.0852 276.643 88.5426C275.364 86 274.725 83.0739 274.725 79.7642C274.725 76.4119 275.371 73.4716 276.664 70.9432C277.971 68.4006 279.824 66.419 282.225 64.9986C284.626 63.5639 287.481 62.8466 290.79 62.8466C293.645 62.8466 296.145 63.3651 298.29 64.402C300.435 65.4389 302.133 66.8949 303.383 68.7699C304.633 70.6449 305.322 72.8466 305.449 75.375H296.884C296.643 73.7415 296.003 72.4276 294.966 71.4332C293.944 70.4247 292.601 69.9205 290.939 69.9205C289.533 69.9205 288.305 70.304 287.253 71.071C286.216 71.8239 285.407 72.9247 284.824 74.3736C284.242 75.8224 283.951 77.5767 283.951 79.6364C283.951 81.7244 284.235 83.5 284.803 84.9631C285.385 86.4261 286.202 87.5412 287.253 88.3082C288.305 89.0753 289.533 89.4588 290.939 89.4588C291.976 89.4588 292.907 89.2457 293.731 88.8196C294.569 88.3935 295.258 87.7756 295.797 86.9659C296.351 86.142 296.714 85.1548 296.884 84.0043H305.449C305.307 86.5043 304.626 88.706 303.404 90.6094C302.197 92.4986 300.528 93.9759 298.397 95.0412C296.266 96.1065 293.745 96.6392 290.833 96.6392ZM314.261 96V63.2727H323.061V68.983H323.401C323.998 66.9517 324.999 65.4176 326.406 64.3807C327.812 63.3295 329.431 62.804 331.264 62.804C331.718 62.804 332.208 62.8324 332.734 62.8892C333.259 62.946 333.721 63.0241 334.119 63.1236V71.1776C333.693 71.0497 333.103 70.9361 332.35 70.8366C331.597 70.7372 330.909 70.6875 330.284 70.6875C328.948 70.6875 327.755 70.9787 326.704 71.5611C325.667 72.1293 324.843 72.9247 324.232 73.9474C323.636 74.9702 323.338 76.1491 323.338 77.4844V96H314.261ZM341.812 96V63.2727H350.888V96H341.812ZM346.371 59.054C345.022 59.054 343.864 58.6065 342.898 57.7116C341.947 56.8026 341.471 55.7159 341.471 54.4517C341.471 53.2017 341.947 52.1293 342.898 51.2344C343.864 50.3253 345.022 49.8707 346.371 49.8707C347.721 49.8707 348.871 50.3253 349.823 51.2344C350.789 52.1293 351.272 53.2017 351.272 54.4517C351.272 55.7159 350.789 56.8026 349.823 57.7116C348.871 58.6065 347.721 59.054 346.371 59.054ZM361.159 108.273V63.2727H370.108V68.7699H370.513C370.911 67.8892 371.486 66.9943 372.239 66.0852C373.006 65.1619 374 64.3949 375.222 63.7841C376.458 63.1591 377.992 62.8466 379.824 62.8466C382.21 62.8466 384.412 63.4716 386.429 64.7216C388.446 65.9574 390.058 67.8253 391.266 70.3253C392.473 72.8111 393.077 75.929 393.077 79.679C393.077 83.3295 392.487 86.4119 391.308 88.9261C390.144 91.4261 388.553 93.3224 386.536 94.6151C384.533 95.8935 382.289 96.5327 379.803 96.5327C378.041 96.5327 376.543 96.2415 375.307 95.6591C374.085 95.0767 373.084 94.3452 372.303 93.4645C371.521 92.5696 370.925 91.6676 370.513 90.7585H370.236V108.273H361.159ZM370.044 79.6364C370.044 81.5824 370.314 83.2798 370.854 84.7287C371.394 86.1776 372.175 87.3068 373.198 88.1165C374.22 88.9119 375.463 89.3097 376.926 89.3097C378.404 89.3097 379.654 88.9048 380.676 88.0952C381.699 87.2713 382.473 86.1349 382.999 84.6861C383.539 83.223 383.808 81.5398 383.808 79.6364C383.808 77.7472 383.546 76.0852 383.02 74.6506C382.494 73.2159 381.72 72.0937 380.698 71.2841C379.675 70.4744 378.418 70.0696 376.926 70.0696C375.449 70.0696 374.199 70.4602 373.176 71.2415C372.168 72.0227 371.394 73.1307 370.854 74.5653C370.314 76 370.044 77.6903 370.044 79.6364ZM419.536 63.2727V70.0909H399.827V63.2727H419.536ZM404.301 55.4318H413.378V85.9432C413.378 86.7812 413.506 87.4347 413.762 87.9034C414.017 88.358 414.372 88.6776 414.827 88.8622C415.296 89.0469 415.835 89.1392 416.446 89.1392C416.872 89.1392 417.298 89.1037 417.725 89.0327C418.151 88.9474 418.477 88.8835 418.705 88.8409L420.132 95.5952C419.678 95.7372 419.039 95.9006 418.215 96.0852C417.391 96.2841 416.389 96.4048 415.21 96.4474C413.023 96.5327 411.105 96.2415 409.458 95.5739C407.824 94.9062 406.553 93.8693 405.644 92.4631C404.735 91.0568 404.287 89.2812 404.301 87.1364V55.4318Z" fill="white"/>
</svg>
