<svg width="502" height="137" viewBox="0 0 502 137" fill="none" xmlns="http://www.w3.org/2000/svg">
<path d="M0 0C0 0 152.434 22 251 22C349.566 22 502 0 502 0C502 0 478.5 40.0289 478.5 68.5C478.5 96.9711 502 137 502 137C502 137 349.246 124.5 251 124.5C152.754 124.5 0 137 0 137C0 137 19 96.3874 19 68.5C19 40.6126 0 0 0 0Z" fill="#5451E3"/>
<path d="M191.062 96V52.3636H208.278C211.588 52.3636 214.407 52.9957 216.737 54.2599C219.066 55.5099 220.842 57.25 222.064 59.4801C223.299 61.696 223.917 64.2528 223.917 67.1506C223.917 70.0483 223.292 72.6051 222.042 74.821C220.792 77.0369 218.981 78.7628 216.609 79.9986C214.251 81.2344 211.396 81.8523 208.044 81.8523H197.071V74.4588H206.552C208.328 74.4588 209.791 74.1534 210.941 73.5426C212.106 72.9176 212.973 72.0582 213.541 70.9645C214.123 69.8565 214.414 68.5852 214.414 67.1506C214.414 65.7017 214.123 64.4375 213.541 63.358C212.973 62.2642 212.106 61.419 210.941 60.8224C209.777 60.2116 208.299 59.9062 206.51 59.9062H200.288V96H191.062ZM232.91 96V52.3636H242.136V70.3679H260.864V52.3636H270.069V96H260.864V77.9744H242.136V96H232.91ZM280.675 96V52.3636H297.891C301.201 52.3636 304.021 52.9957 306.35 54.2599C308.68 55.5099 310.455 57.25 311.677 59.4801C312.913 61.696 313.531 64.2528 313.531 67.1506C313.531 70.0483 312.906 72.6051 311.656 74.821C310.406 77.0369 308.594 78.7628 306.222 79.9986C303.864 81.2344 301.009 81.8523 297.657 81.8523H286.684V74.4588H296.165C297.941 74.4588 299.404 74.1534 300.555 73.5426C301.719 72.9176 302.586 72.0582 303.154 70.9645C303.737 69.8565 304.028 68.5852 304.028 67.1506C304.028 65.7017 303.737 64.4375 303.154 63.358C302.586 62.2642 301.719 61.419 300.555 60.8224C299.39 60.2116 297.913 59.9062 296.123 59.9062H289.901V96H280.675Z" fill="white"/>
</svg>
